<svg width="260" height="160" viewBox="0 0 260 160" fill="none" xmlns="http://www.w3.org/2000/svg">
  <rect width="260" height="160" rx="13" fill="#2A5E33"/>
  <mask id="mask0" mask-type="alpha" maskUnits="userSpaceOnUse" x="0" y="0" width="260" height="160">
    <rect width="260" height="160" rx="13" fill="#2A5E33"/>
  </mask>
  <g mask="url(#mask0)">
    <path
      d="M218.512 65.4909C220.618 65.4492 222.708 65.8648 224.638 66.7091C226.567 67.5534 228.291 68.8063 229.69 70.3813L239.256 79.8935L229.744 89.2444C228.342 90.8334 226.611 92.0986 224.672 92.9523C222.732 93.806 220.63 94.2278 218.512 94.1886C216.665 94.1679 214.842 93.78 213.147 93.0476C211.452 92.3152 209.919 91.2528 208.639 89.9224C207.359 88.592 206.356 87.0201 205.689 85.2983C205.022 83.5766 204.704 81.7393 204.754 79.8935C204.689 78.0388 204.996 76.19 205.657 74.4557C206.317 72.7214 207.318 71.1367 208.6 69.7947C209.881 68.4528 211.419 67.3808 213.121 66.6416C214.823 65.9025 216.656 65.5113 218.512 65.4909ZM218.512 54.7427C215.243 54.7562 212.009 55.4207 209 56.6975C205.991 57.9743 203.266 59.8377 200.985 62.1791C198.703 64.5204 196.911 67.2927 195.713 70.3342C194.515 73.3756 193.934 76.6253 194.006 79.8935C193.934 83.1617 194.515 86.4114 195.713 89.4528C196.911 92.4943 198.703 95.2666 200.985 97.6079C203.266 99.9493 205.991 101.813 209 103.089C212.009 104.366 215.243 105.031 218.512 105.044C221.976 105.037 225.402 104.323 228.58 102.946C231.759 101.569 234.624 99.5584 236.999 97.0369L253.658 79.8935L236.999 62.6964C234.624 60.1748 231.759 58.1642 228.58 56.7874C225.402 55.4106 221.976 54.6966 218.512 54.689"
      fill="#376D44"/>
    <path
      d="M259.892 100.476L269.243 110.042C270.88 111.458 272.182 113.218 273.056 115.198C273.929 117.177 274.353 119.326 274.295 121.489C274.297 123.351 273.921 125.195 273.19 126.907C272.458 128.62 271.387 130.166 270.04 131.453C268.694 132.739 267.1 133.739 265.355 134.391C263.611 135.043 261.753 135.334 259.892 135.247C258.032 135.334 256.174 135.043 254.429 134.391C252.685 133.739 251.091 132.739 249.745 131.453C248.398 130.166 247.327 128.62 246.595 126.907C245.864 125.195 245.488 123.351 245.49 121.489C245.448 119.383 245.864 117.293 246.708 115.363C247.552 113.433 248.805 111.71 250.38 110.311L259.892 100.476ZM259.892 85.8052C253.829 90.988 248.103 96.5526 242.749 102.465C240.151 104.897 238.091 107.846 236.703 111.123C235.315 114.4 234.628 117.931 234.688 121.489C234.701 124.758 235.366 127.992 236.643 131.001C237.919 134.01 239.783 136.735 242.124 139.016C244.466 141.298 247.238 143.09 250.279 144.288C253.321 145.486 256.57 146.067 259.839 145.995C263.111 146.074 266.367 145.499 269.414 144.304C272.462 143.109 275.241 141.318 277.588 139.036C279.935 136.754 281.803 134.027 283.083 131.014C284.364 128.001 285.03 124.763 285.043 121.489C285.076 117.98 284.381 114.501 283.003 111.273C281.625 108.045 279.593 105.138 277.036 102.734L259.892 85.8052Z"
      fill="#376D44"/>
    <path
      d="M259.892 24.7553C261.747 24.6907 263.596 24.9976 265.33 25.6581C267.064 26.3185 268.649 27.319 269.991 28.6009C271.333 29.8827 272.405 31.42 273.144 33.1222C273.883 34.8245 274.275 36.6573 274.295 38.513C274.317 40.6315 273.876 42.7292 273.003 44.6599C272.131 46.5905 270.848 48.3075 269.243 49.6911L259.892 59.257L250.38 49.7449C248.791 48.343 247.526 46.6123 246.672 44.6729C245.819 42.7335 245.397 40.6316 245.436 38.513C245.434 36.646 245.811 34.798 246.546 33.0816C247.281 31.3653 248.357 29.8164 249.709 28.5293C251.062 27.2422 252.662 26.2438 254.413 25.595C256.163 24.9462 258.028 24.6605 259.892 24.7553ZM259.892 14.0071C256.62 13.9285 253.364 14.5034 250.316 15.6984C247.269 16.8933 244.49 18.6842 242.143 20.9662C239.796 23.2483 237.928 25.9756 236.647 28.9885C235.367 32.0014 234.701 35.2394 234.688 38.513C234.659 42.0222 235.355 45.4996 236.733 48.7271C238.111 51.9546 240.141 54.8626 242.695 57.2686L259.839 73.9283L276.982 57.2686C279.539 54.8646 281.571 51.957 282.949 48.729C284.327 45.5011 285.022 42.0227 284.989 38.513C284.976 35.2487 284.313 32.0197 283.039 29.014C281.766 26.0082 279.907 23.2858 277.572 21.0053C275.236 18.7247 272.47 16.9315 269.435 15.7301C266.4 14.5286 263.156 13.9429 259.892 14.0071Z"
      fill="#376D44"/>
  </g>
  <path
    d="M46.7932 31.7935C47.2902 31.7989 47.7812 31.9037 48.2372 32.1017C48.6932 32.2997 49.105 32.5869 49.4484 32.9463C49.7917 33.3058 50.0598 33.7303 50.2367 34.1949C50.4136 34.6595 50.4958 35.1547 50.4785 35.6515C50.4958 36.1483 50.4136 36.6436 50.2367 37.1082C50.0598 37.5727 49.7917 37.9973 49.4484 38.3567C49.105 38.7162 48.6932 39.0034 48.2372 39.2014C47.7812 39.3993 47.2902 39.5041 46.7932 39.5096C46.216 39.5239 45.6429 39.41 45.1151 39.1759C44.5874 38.9419 44.1181 38.5937 43.7413 38.1564L41.1788 35.6083L43.7269 33.0747C44.1127 32.6493 44.5874 32.3141 45.1173 32.0926C45.6473 31.8712 46.2194 31.7691 46.7932 31.7935ZM46.7932 28.9143C45.8531 28.9065 44.9216 29.093 44.0571 29.4621C43.1925 29.8312 42.4136 30.3749 41.769 31.0593L37.3063 35.6659L41.769 40.2582C42.4143 40.9406 43.1937 41.4822 44.0583 41.8488C44.9229 42.2155 45.8541 42.3993 46.7932 42.3888C47.6688 42.3852 48.535 42.2071 49.3411 41.8651C50.1472 41.5231 50.8771 41.0239 51.4882 40.3968C52.0993 39.7696 52.5794 39.0269 52.9004 38.2122C53.2213 37.3975 53.3768 36.527 53.3576 35.6515C53.3787 34.7749 53.2247 33.9028 52.9046 33.0864C52.5845 32.27 52.1048 31.5257 51.4935 30.8969C50.8822 30.2682 50.1516 29.7678 49.3445 29.4249C48.5374 29.0819 47.6701 28.9035 46.7932 28.8999"
    fill="white"/>
  <path
    d="M24.5661 31.7935C25.1302 31.7823 25.6901 31.8936 26.207 32.1198C26.724 32.346 27.1857 32.6816 27.5604 33.1035L30.1228 35.6515L27.5748 38.1564C27.1992 38.582 26.7357 38.9209 26.2161 39.1496C25.6966 39.3783 25.1336 39.4913 24.5661 39.4808C24.0715 39.4753 23.5829 39.3714 23.1289 39.1752C22.6749 38.979 22.2644 38.6944 21.9214 38.338C21.5784 37.9816 21.3098 37.5606 21.1311 37.0993C20.9524 36.6381 20.8673 36.146 20.8807 35.6515C20.8634 35.1547 20.9456 34.6595 21.1226 34.1949C21.2995 33.7303 21.5675 33.3058 21.9109 32.9463C22.2542 32.5869 22.666 32.2997 23.122 32.1017C23.578 31.9037 24.069 31.7989 24.5661 31.7935ZM24.5661 28.9143C23.6904 28.9179 22.8242 29.0959 22.0181 29.4379C21.212 29.78 20.4821 30.2791 19.871 30.9063C19.2599 31.5335 18.7798 32.2761 18.4589 33.0908C18.1379 33.9056 17.9824 34.7761 18.0016 35.6515C17.9824 36.527 18.1379 37.3975 18.4589 38.2122C18.7798 39.0269 19.2599 39.7696 19.871 40.3968C20.4821 41.0239 21.212 41.5231 22.0181 41.8651C22.8242 42.2071 23.6904 42.3851 24.5661 42.3888C25.494 42.3867 26.4117 42.1955 27.2632 41.8267C28.1147 41.4578 28.882 40.9192 29.5182 40.2438L33.9809 35.6515L29.5182 31.0449C28.882 30.3694 28.1147 29.8308 27.2632 29.462C26.4117 29.0932 25.494 28.9019 24.5661 28.8999"
    fill="#72BF44"/>
  <path
    d="M35.6509 41.1639L38.1558 43.7264C38.5942 44.1055 38.943 44.5772 39.177 45.1074C39.411 45.6377 39.5244 46.2133 39.509 46.7927C39.5095 47.2915 39.4088 47.7853 39.2129 48.2441C39.017 48.7029 38.73 49.1171 38.3692 49.4616C38.0085 49.8062 37.5816 50.074 37.1143 50.2487C36.6471 50.4234 36.1492 50.5014 35.6509 50.478C35.1526 50.5014 34.6547 50.4234 34.1875 50.2487C33.7202 50.074 33.2933 49.8062 32.9326 49.4616C32.5719 49.1171 32.2848 48.7029 32.0889 48.2441C31.893 47.7853 31.7923 47.2915 31.7928 46.7927C31.7817 46.2285 31.893 45.6687 32.1192 45.1517C32.3453 44.6348 32.6809 44.173 33.1028 43.7984L35.6509 41.1639ZM35.6509 37.2339C34.0268 38.6222 32.4929 40.1128 31.0586 41.6966C30.3627 42.3481 29.811 43.1381 29.4391 44.0159C29.0672 44.8936 28.8833 45.8395 28.8993 46.7927C28.9029 47.6684 29.0809 48.5345 29.4229 49.3406C29.7649 50.1468 30.2641 50.8767 30.8913 51.4878C31.5185 52.0989 32.2611 52.5789 33.0758 52.8999C33.8905 53.2208 34.761 53.3763 35.6365 53.3572C36.5132 53.3782 37.3852 53.2242 38.2016 52.9041C39.018 52.584 39.7624 52.1043 40.3911 51.493C41.0198 50.8817 41.5203 50.1511 41.8632 49.3441C42.2061 48.537 42.3846 47.6696 42.3881 46.7927C42.3968 45.8525 42.2107 44.9208 41.8416 44.0561C41.4724 43.1914 40.9282 42.4125 40.2432 41.7686L35.6509 37.2339Z"
    fill="#00A651"/>
  <path
    d="M35.6507 20.8811C36.1475 20.8638 36.6427 20.946 37.1073 21.1229C37.5719 21.2998 37.9964 21.5678 38.3559 21.9112C38.7153 22.2546 39.0025 22.6664 39.2005 23.1223C39.3985 23.5783 39.5033 24.0693 39.5087 24.5664C39.5146 25.1339 39.3965 25.6958 39.1628 26.213C38.929 26.7301 38.5853 27.1901 38.1555 27.5607L35.6507 30.1232L33.1026 27.5751C32.677 27.1996 32.3381 26.736 32.1094 26.2165C31.8807 25.6969 31.7677 25.1339 31.7782 24.5664C31.7776 24.0663 31.8787 23.5712 32.0755 23.1115C32.2723 22.6517 32.5606 22.2368 32.9229 21.892C33.2852 21.5472 33.7139 21.2798 34.1828 21.106C34.6518 20.9322 35.1512 20.8557 35.6507 20.8811ZM35.6507 18.0019C34.774 17.9808 33.902 18.1349 33.0856 18.4549C32.2692 18.775 31.5248 19.2548 30.8961 19.8661C30.2674 20.4774 29.7669 21.2079 29.424 22.015C29.0811 22.8221 28.9026 23.6895 28.899 24.5664C28.8912 25.5064 29.0777 26.4379 29.4468 27.3025C29.8159 28.167 30.3597 28.946 31.044 29.5905L35.6363 34.0532L40.2285 29.5905C40.9135 28.9465 41.4578 28.1677 41.8269 27.303C42.1961 26.4383 42.3822 25.5065 42.3735 24.5664C42.3699 23.692 42.1923 22.827 41.8512 22.0218C41.5101 21.2167 41.0122 20.4874 40.3865 19.8765C39.7609 19.2656 39.02 18.7853 38.2069 18.4634C37.3939 18.1416 36.5249 17.9847 35.6507 18.0019Z"
    fill="#B2D235"/>
  <path
    d="M94.6449 30.5252C94.4199 30.5033 94.1933 30.5033 93.9683 30.5252C92.7024 30.5938 91.4722 30.9693 90.3838 31.6193V31.1874C90.3838 31.0146 90.3838 30.7123 90.0527 30.7123H87.7781C87.4839 30.7215 87.2031 30.8377 86.9885 31.0391C86.7738 31.2406 86.64 31.5134 86.6121 31.8064V34.2249V46.0439C86.59 46.4803 86.6586 46.9165 86.8133 47.3251C86.9681 47.7338 87.2057 48.106 87.5113 48.4183C87.8169 48.7307 88.1838 48.9764 88.5889 49.14C88.9941 49.3037 89.4287 49.3818 89.8655 49.3693H89.9807C90.1534 49.3693 90.355 49.2973 90.355 48.9518V43.7693C91.2783 44.3335 92.3392 44.6324 93.4213 44.6331C93.8655 44.6391 94.3092 44.6005 94.7457 44.5179C97.1066 44.158 99.2804 42.0274 99.2804 37.4064C99.2804 33.5771 97.6536 30.7555 94.6017 30.5252H94.6449ZM92.7159 41.9123C91.2763 41.9123 90.4125 40.775 90.4125 38.8891V36.01C90.4125 34.3977 91.3195 33.1308 92.7159 33.1308C94.1123 33.1308 95.1776 34.3833 95.1776 37.4496C95.1776 39.7385 94.6737 41.8835 92.7159 41.8835"
    fill="white"/>
  <path
    d="M186.778 30.4817C185.912 30.4737 185.053 30.639 184.252 30.9678C183.451 31.2966 182.724 31.7823 182.114 32.3964C181.454 33.08 180.937 33.8873 180.591 34.7718C180.245 35.6563 180.078 36.6005 180.098 37.5501C180.049 39.5077 180.773 41.406 182.114 42.8333C183.386 43.944 185.017 44.5561 186.706 44.5561C188.395 44.5561 190.026 43.944 191.298 42.8333C191.991 42.1298 192.537 41.295 192.902 40.3779C193.268 39.4607 193.447 38.4797 193.429 37.4925C193.471 35.6026 192.767 33.7721 191.471 32.3964C190.852 31.7899 190.118 31.3132 189.312 30.9943C188.506 30.6754 187.644 30.5207 186.778 30.5393V30.4817ZM188.736 40.8179C188.538 41.1651 188.253 41.4539 187.908 41.6547C187.562 41.8556 187.17 41.9614 186.771 41.9614C186.371 41.9614 185.979 41.8556 185.634 41.6547C185.289 41.4539 185.003 41.1651 184.806 40.8179C184.319 39.8012 184.11 38.6736 184.201 37.5501C184.118 36.4082 184.358 35.266 184.892 34.2534C185.088 33.9286 185.365 33.6598 185.695 33.4733C186.026 33.2868 186.399 33.1888 186.778 33.1888C187.157 33.1888 187.53 33.2868 187.861 33.4733C188.191 33.6598 188.468 33.9286 188.664 34.2534C189.198 35.266 189.437 36.4082 189.355 37.5501C189.443 38.675 189.23 39.8032 188.736 40.8179Z"
    fill="white"/>
  <path
    d="M163.399 33.1457C163.731 33.1485 164.058 33.2294 164.353 33.382C164.648 33.5345 164.903 33.7544 165.098 34.0238C165.258 34.2777 165.38 34.5543 165.458 34.8444C165.487 34.9958 165.567 35.1325 165.685 35.232C165.803 35.3315 165.951 35.3877 166.105 35.3914H168.884C168.919 35.3917 168.953 35.3845 168.985 35.3705C169.016 35.3564 169.045 35.3358 169.068 35.3099C169.091 35.284 169.108 35.2535 169.119 35.2204C169.129 35.1873 169.133 35.1524 169.129 35.1179C168.902 33.8928 168.304 32.767 167.415 31.8933C166.284 30.9325 164.84 30.4203 163.356 30.4537C161.769 30.4394 160.232 31.008 159.037 32.0516C158.307 32.7561 157.737 33.609 157.364 34.5526C156.992 35.4963 156.826 36.5088 156.878 37.522C156.835 38.5042 156.988 39.4851 157.33 40.4072C157.671 41.3293 158.192 42.1739 158.864 42.8917C160.037 43.9781 161.585 44.5666 163.183 44.5328C164.677 44.5719 166.132 44.0594 167.271 43.0932C168.142 42.285 168.745 41.2302 168.999 40.0701C168.999 39.9837 168.999 39.811 168.769 39.811H165.889C165.746 39.8118 165.607 39.8625 165.497 39.9544C165.386 40.0463 165.312 40.1737 165.285 40.3148V40.4012C165.217 40.5618 165.135 40.716 165.04 40.8618C164.88 41.1508 164.64 41.3874 164.349 41.5432C164.058 41.699 163.728 41.7674 163.399 41.74C163.027 41.7598 162.658 41.6692 162.338 41.4796C162.018 41.29 161.761 41.01 161.6 40.6747C161.121 39.6405 160.922 38.4987 161.024 37.3637C160.909 36.2263 161.098 35.0788 161.571 34.0382C161.757 33.7208 162.022 33.4562 162.339 33.2698C162.657 33.0833 163.017 32.9812 163.385 32.9729"
    fill="white"/>
  <path
    d="M78.7375 30.4826C77.124 30.4007 75.5364 30.9129 74.2748 31.9221C73.4824 32.6043 72.8554 33.4578 72.4414 34.418C72.0274 35.3782 71.8372 36.42 71.8851 37.4645C71.848 38.4043 71.9996 39.342 72.3309 40.2222C72.6622 41.1025 73.1666 41.9074 73.8142 42.5894C74.4626 43.2107 75.2278 43.6972 76.0655 44.0209C76.9031 44.3446 77.7966 44.499 78.6943 44.4753C80.2254 44.5206 81.7333 44.0934 83.0131 43.2516C84.0201 42.5518 84.7688 41.5401 85.1437 40.3725C85.1437 40.2573 85.23 40.0126 84.9421 40.0126H81.7606C81.6692 40.0287 81.5826 40.0656 81.5077 40.1205C81.4328 40.1754 81.3716 40.2469 81.3288 40.3293C81.2229 40.5803 81.0716 40.8097 80.8825 41.0059C80.6203 41.2619 80.3094 41.4627 79.9681 41.5962C79.6268 41.7298 79.2622 41.7934 78.8959 41.7833C78.3963 41.8055 77.901 41.6811 77.4713 41.4252C77.0415 41.1694 76.696 40.7935 76.4774 40.3437C76.148 39.6734 75.9944 38.9303 76.0311 38.1843H84.8989C85.2588 38.1843 85.374 37.9252 85.3884 37.4501V37.3494C85.4247 35.6373 84.8706 33.9649 83.8192 32.6131C83.1964 31.8752 82.414 31.2883 81.5312 30.8967C80.6484 30.5052 79.6883 30.3193 78.7231 30.353L78.7375 30.4826ZM76.0167 35.9242C75.9981 35.1664 76.2595 34.4283 76.7509 33.8512C77.0124 33.5813 77.3257 33.367 77.672 33.221C78.0183 33.0751 78.3905 33.0005 78.7663 33.0018C79.1594 32.9898 79.5494 33.0756 79.9011 33.2515C80.2529 33.4274 80.5555 33.6879 80.7817 34.0095C81.1918 34.6092 81.3895 35.3288 81.3432 36.0537L76.0167 35.9242Z"
    fill="white"/>
  <path
    d="M125.884 39.8698C125.034 38.1135 124.271 36.9907 123.552 36.9907C123.552 36.9907 124.516 36.9907 125.164 35.1624C125.394 34.5434 126.013 33.0894 126.431 32.1969C126.616 31.8313 126.843 31.4884 127.107 31.1748C127.126 31.1187 127.126 31.0581 127.107 31.002C127.109 30.9642 127.104 30.9263 127.091 30.8907C127.078 30.855 127.059 30.8222 127.033 30.7941C127.008 30.766 126.977 30.7432 126.943 30.727C126.909 30.7108 126.872 30.7015 126.834 30.6997H124.127C123.364 30.6997 123.005 31.3187 122.688 31.8945C122.27 32.8447 122.112 33.4349 121.522 34.7737C121.379 35.1661 121.115 35.5029 120.768 35.7358C120.422 35.9686 120.01 36.0854 119.593 36.0693H118.787V31.1604C118.787 30.9876 118.859 30.6709 118.455 30.6709H116.051C115.756 30.6835 115.475 30.8028 115.261 31.0066C115.046 31.2103 114.913 31.4849 114.885 31.7794V42.1875C114.875 42.5586 114.929 42.9287 115.044 43.2816C115.158 43.5801 115.353 43.8407 115.607 44.0341C115.862 44.2274 116.165 44.3457 116.483 44.3757H118.211C118.657 44.3757 118.787 44.1454 118.787 43.7999V38.3295H119.478C120.989 38.3295 121.666 40.057 122.357 41.2806C123.048 42.5042 123.983 44.4189 125.826 44.3181H128.014C128.088 44.3144 128.158 44.2825 128.209 44.2289C128.26 44.1753 128.288 44.1041 128.288 44.0302C128.3 43.983 128.3 43.9334 128.288 43.8862C127.77 43.0513 126.618 41.1654 125.912 39.8554"
    fill="white"/>
  <path
    d="M69.4667 26.8691H58.5834C58.4076 26.871 58.2339 26.9075 58.0722 26.9765C57.9105 27.0456 57.7639 27.1458 57.6409 27.2714C57.518 27.3971 57.4209 27.5457 57.3554 27.7089C57.2899 27.8721 57.2571 28.0465 57.259 28.2223C57.259 28.2223 57.259 40.7467 57.259 40.7899C57.2476 41.3504 57.3453 41.9078 57.5469 42.431C57.7994 42.9737 58.1879 43.4418 58.6747 43.7899C59.1616 44.138 59.7302 44.3543 60.3253 44.4176H60.8292C61.1747 44.4176 61.2323 44.2449 61.2323 43.8562V31.0727C61.2581 30.9493 61.3246 30.8382 61.4212 30.7573C61.5179 30.6763 61.6389 30.6302 61.7649 30.6264H66.242C66.3698 30.6296 66.4929 30.6751 66.5919 30.7559C66.691 30.8367 66.7603 30.9482 66.789 31.0727C66.789 31.0727 66.789 40.6171 66.789 40.7899C66.7776 41.3504 66.8754 41.9078 67.077 42.431C67.3269 42.9698 67.711 43.4354 68.1924 43.7833C68.6738 44.1311 69.2365 44.3495 69.8266 44.4176H70.3304C70.6759 44.4176 70.7335 44.2449 70.7335 43.8562V28.208C70.7117 27.8697 70.5713 27.5499 70.3369 27.305C70.1026 27.0601 69.7893 26.9057 69.4523 26.8691"
    fill="white"/>
  <path
    d="M181.408 30.9581C181.408 30.8285 181.408 30.6558 181.164 30.6558H168.423C168.15 30.6558 168.135 30.8285 168.164 30.9581C168.3 31.6157 168.633 32.2162 169.119 32.6793C169.606 33.1423 170.222 33.4459 170.885 33.5493H172.325C172.47 33.5667 172.604 33.6361 172.702 33.7446C172.799 33.8531 172.855 33.9934 172.857 34.1395V41.1503C172.847 41.6021 172.941 42.0502 173.131 42.4603C173.381 43.0019 173.767 43.4695 174.251 43.8176C174.735 44.1658 175.302 44.3826 175.895 44.4469H176.355C176.701 44.4469 176.773 44.2742 176.773 43.8855V34.1251C176.778 33.9799 176.835 33.8411 176.932 33.7332C177.029 33.6253 177.162 33.5551 177.306 33.5349H178.745C179.396 33.4218 179.998 33.1156 180.473 32.6561C180.948 32.1966 181.274 31.605 181.408 30.9581Z"
    fill="white"/>
  <path
    d="M207.925 43.9154C207.407 43.0805 206.256 41.1946 205.55 39.8846C204.701 38.1283 203.938 37.0054 203.218 37.0054C203.218 37.0054 204.183 37.0054 204.83 35.1772C205.046 34.5581 205.68 33.1042 206.097 32.2116C206.283 31.8464 206.51 31.5034 206.774 31.1895C206.823 31.1526 206.86 31.1007 206.877 31.0416C206.895 30.9824 206.893 30.9191 206.872 30.861C206.851 30.8029 206.812 30.7531 206.761 30.719C206.709 30.6848 206.648 30.6681 206.587 30.6713H203.823C203.06 30.6713 202.7 31.2903 202.383 31.8661C201.98 32.8163 201.807 33.4065 201.217 34.7453C201.074 35.1377 200.81 35.4745 200.464 35.7074C200.117 35.9402 199.705 36.057 199.288 36.0409H198.482V31.1607C198.482 30.988 198.482 30.6713 198.151 30.6713H195.689C195.393 30.6839 195.113 30.8032 194.898 31.0069C194.684 31.2107 194.551 31.4853 194.523 31.7798V42.1879C194.516 42.5541 194.569 42.9189 194.681 43.2676C194.795 43.5661 194.991 43.8267 195.245 44.02C195.499 44.2134 195.803 44.3317 196.121 44.3617H197.949C198.395 44.3617 198.511 44.1314 198.511 43.7859V38.3155H199.202C200.728 38.3155 201.39 40.0429 202.081 41.2666C202.772 42.4902 203.707 44.4049 205.55 44.3041H207.738C207.785 44.2998 207.83 44.2841 207.87 44.2584C207.909 44.2327 207.941 44.1977 207.964 44.1565C207.987 44.1153 207.999 44.0691 208 44.0221C208.001 43.9751 207.99 43.9285 207.969 43.8866"
    fill="white"/>
  <path
    d="M136.81 30.5251C136.585 30.5033 136.358 30.5033 136.133 30.5251C134.867 30.5943 133.637 30.9698 132.549 31.6192V31.1873C132.549 31.0146 132.621 30.7123 132.218 30.7123H129.943C129.649 30.7215 129.368 30.8377 129.153 31.0391C128.939 31.2405 128.805 31.5133 128.777 31.8063V34.2248V46.0438C128.755 46.4802 128.824 46.9164 128.978 47.3251C129.133 47.7337 129.371 48.1059 129.676 48.4183C129.982 48.7306 130.349 48.9763 130.754 49.14C131.159 49.3036 131.594 49.3817 132.03 49.3692H132.174C132.362 49.3692 132.549 49.2972 132.549 48.9517V43.7692C133.472 44.3335 134.533 44.6323 135.615 44.633C136.054 44.6386 136.493 44.6 136.925 44.5178C139.3 44.1579 141.46 42.0274 141.46 37.4063C141.46 33.577 139.833 30.7555 136.781 30.5251H136.81ZM134.838 41.9266C133.398 41.9266 132.534 40.7893 132.534 38.9035V36.0243C132.534 34.412 133.427 33.1452 134.838 33.1452C136.248 33.1452 137.314 34.3976 137.314 37.4639C137.314 39.7528 136.81 41.8978 134.838 41.8978"
    fill="white"/>
  <path
    d="M149.335 30.4823C147.721 30.4018 146.134 30.9138 144.872 31.9219C144.08 32.6048 143.454 33.4584 143.04 34.4184C142.626 35.3784 142.435 36.4199 142.482 37.4643C142.446 38.4052 142.6 39.3437 142.933 40.2241C143.267 41.1045 143.775 41.9088 144.426 42.5892C145.074 43.2098 145.84 43.6959 146.677 44.0195C147.515 44.3432 148.408 44.498 149.306 44.475C150.837 44.5204 152.345 44.0932 153.624 43.2514C154.632 42.5524 155.381 41.5403 155.755 40.3722C155.755 40.2571 155.841 40.0124 155.554 40.0124H152.358C152.266 40.0284 152.18 40.0654 152.105 40.1203C152.03 40.1752 151.969 40.2466 151.926 40.3291C151.82 40.5801 151.669 40.8095 151.479 41.0057C151.218 41.2624 150.907 41.4636 150.566 41.5972C150.224 41.7308 149.859 41.794 149.493 41.783C148.993 41.8053 148.498 41.6808 148.068 41.425C147.639 41.1692 147.293 40.7932 147.074 40.3435C146.744 39.6733 146.591 38.9301 146.628 38.1841H155.496C155.856 38.1841 155.971 37.925 155.985 37.4499V37.3491C156.022 35.6371 155.468 33.9646 154.416 32.6129C153.793 31.8757 153.01 31.2894 152.128 30.898C151.245 30.5065 150.285 30.3201 149.32 30.3528L149.335 30.4823ZM146.614 35.9239C146.598 35.1641 146.864 34.4253 147.362 33.851C147.623 33.5797 147.936 33.3645 148.282 33.2185C148.629 33.0724 149.002 32.9986 149.378 33.0016C149.771 32.9883 150.161 33.0735 150.513 33.2495C150.865 33.4255 151.168 33.6867 151.393 34.0093C151.777 34.6182 151.949 35.3368 151.883 36.0535L146.614 35.9239Z"
    fill="white"/>
  <path
    d="M109.199 30.6992H100.777C100.777 33.1465 103.181 33.9959 104.967 33.9959H113.388C113.388 31.5342 110.984 30.6992 109.199 30.6992Z"
    fill="white"/>
  <path
    d="M109.199 35.9243H100.777C100.777 38.3716 103.181 39.221 104.967 39.221H113.388C113.388 36.7737 110.984 35.9243 109.199 35.9243Z"
    fill="white"/>
  <path
    d="M109.199 41.1499H100.777C100.777 43.5972 103.181 44.4465 104.967 44.4465H113.388C113.388 41.9849 110.984 41.1499 109.199 41.1499Z"
    fill="white"/>
</svg>
